<?xml version="1.0" standalone="no"?>
<!DOCTYPE svg PUBLIC "-//W3C//DTD SVG 20010904//EN"
 "http://www.w3.org/TR/2001/REC-SVG-20010904/DTD/svg10.dtd">
<svg version="1.0" xmlns="http://www.w3.org/2000/svg"
 width="2048.000000pt" height="1536.000000pt" viewBox="0 0 2048.000000 1536.000000"
 preserveAspectRatio="xMidYMid meet">

<g transform="translate(0.000000,1536.000000) scale(0.100000,-0.100000)"
fill="#000000" stroke="none">
<path d="M10185 12489 c-1093 -71 -2068 -548 -2779 -1359 -544 -619 -881
-1402 -967 -2240 -17 -162 -17 -600 0 -760 67 -654 279 -1259 627 -1793 346
-529 789 -951 1339 -1274 523 -307 1157 -498 1758 -531 72 -4 977 -6 2010 -4
l1877 3 0 645 0 644 -1892 0 c-1559 0 -1915 3 -2018 14 -814 92 -1532 537
-1967 1221 -511 802 -556 1821 -117 2664 135 260 261 429 483 652 237 237 423
371 706 510 237 116 413 176 650 224 239 48 193 47 2228 45 l1927 -1 0 670 0
671 -1839 0 c-1011 0 -1851 2 -1867 4 -16 2 -87 0 -159 -5z"/>
<path d="M6825 3941 c-196 -57 -359 -234 -402 -435 -47 -227 79 -472 300 -581
209 -103 457 -73 616 74 36 33 41 42 32 59 -6 11 -57 63 -115 116 l-105 98
-43 -30 c-53 -36 -77 -44 -137 -44 -59 1 -90 13 -135 53 -104 91 -105 236 -2
326 46 41 96 56 166 51 41 -3 70 -12 99 -31 22 -15 46 -27 53 -27 7 0 63 47
123 104 l110 104 -47 45 c-58 54 -145 101 -223 122 -78 20 -214 18 -290 -4z"/>
<path d="M9123 3946 c-191 -46 -370 -223 -412 -406 -16 -68 -13 -209 5 -271
42 -144 151 -274 285 -342 170 -85 337 -86 506 -2 201 100 313 273 313 484 0
160 -46 267 -161 381 -82 81 -161 128 -264 154 -70 19 -199 19 -272 2z m233
-335 c151 -69 172 -281 36 -375 -147 -102 -352 2 -352 179 0 157 170 262 316
196z"/>
<path d="M7541 3936 c-8 -9 -10 -157 -9 -532 l3 -519 165 0 165 0 3 203 2 202
155 0 155 0 2 -202 3 -203 160 -3 c142 -2 161 -1 172 15 10 13 13 132 13 519
0 444 -2 504 -16 518 -13 13 -42 16 -163 16 -101 0 -151 -4 -159 -12 -8 -8
-12 -60 -12 -170 l0 -158 -155 0 -155 0 0 164 c0 140 -2 165 -16 170 -9 3 -80
6 -159 6 -108 0 -145 -3 -154 -14z"/>
<path d="M10001 3936 c-8 -9 -10 -157 -9 -532 l3 -519 168 -3 c92 -1 168 -1
169 0 1 2 4 98 7 215 l6 211 114 -201 c63 -111 122 -207 130 -214 19 -15 381
-18 381 -4 0 5 -70 131 -155 280 l-155 271 150 242 c83 133 150 248 150 255 0
10 -42 13 -184 13 -178 0 -186 -1 -210 -22 -14 -13 -71 -99 -126 -193 l-100
-170 0 177 c0 147 -3 179 -16 192 -21 22 -305 24 -323 2z"/>
<path d="M11127 3943 c-4 -3 -7 -64 -7 -135 l0 -128 405 0 406 0 -3 133 -3
132 -396 3 c-217 1 -398 -1 -402 -5z"/>
<path d="M12120 3931 c-11 -21 -15 -1007 -4 -1035 9 -24 329 -24 338 0 3 9 6
85 6 170 0 209 7 208 120 -14 l85 -167 168 -3 c141 -2 168 0 173 13 3 8 -38
95 -95 201 -56 102 -101 188 -101 191 0 3 22 25 49 49 29 26 62 69 78 102 25
51 28 68 28 157 0 91 -3 105 -29 158 -33 63 -93 125 -153 155 -65 34 -146 42
-404 42 -235 0 -249 -1 -259 -19z m495 -281 c35 -33 35 -88 -1 -121 -22 -20
-35 -24 -92 -24 l-67 0 -3 74 c-4 104 -4 104 73 99 50 -3 70 -9 90 -28z"/>
<path d="M13162 3938 c-13 -13 -18 -232 -6 -262 5 -14 35 -16 225 -16 120 0
219 -3 219 -6 0 -3 -99 -127 -220 -275 l-221 -270 3 -112 3 -112 430 -3 c395
-2 431 -1 443 15 17 24 17 247 -1 262 -9 7 -91 12 -230 13 l-217 3 225 279
225 278 0 103 c0 85 -3 104 -16 109 -9 3 -203 6 -433 6 -311 0 -420 -3 -429
-12z"/>
<path d="M11122 3408 l3 -133 400 0 400 0 3 133 3 132 -406 0 -406 0 3 -132z"/>
<path d="M11127 3143 c-4 -3 -7 -64 -7 -135 l0 -128 405 0 406 0 -3 133 -3
132 -396 3 c-217 1 -398 -1 -402 -5z"/>
</g>
</svg>
